<svg xmlns="http://www.w3.org/2000/svg" version="1.1" xmlns:xlink="http://www.w3.org/1999/xlink" xmlns:svgjs="http://svgjs.dev/svgjs" viewBox="0 0 1920 1080"><rect width="1920" height="1080" fill="#0b5ed7"></rect><g transform="matrix(0.9959292143521045,0.5749999999999998,-0.5749999999999998,0.9959292143521045,314.2497183314242,-527.4508968438863)"><path d="M0,-1080C2.6850632000025363,-974.5732310861093,7.409511420472237,-636.1596432115138,16.110379200015217,-447.4393865166558C24.8112469795582,-258.7191298217979,67.70202965313955,-124.26635170106132,52.20520667725788,52.32154016914754C36.70838370137621,228.9094320393564,-89.37300939889663,427.10679479501516,-76.87055865527478,612.0879647045973C-64.36810791165293,797.0691346141795,97.27928176910645,1007.6304238544376,127.219911138989,1162.2085596266404C157.16054050887158,1316.7866953988432,123.97653608718544,1373.2582059422546,102.7732175640206,1539.5567793378145C81.56989904085576,1705.8553527333745,17.128869594003433,2056.5927965563023,0,2160L 1920 2160 L 1920 -1080 Z" fill="url(&quot;#SvgjsLinearGradient1048&quot;)"></path><path d="M320,-1080C335.50946581729625,-932.3824916340848,392.53170458871176,-446.4000561045799,413.05679490377736,-194.2949498045084C433.58188521884296,57.81015649556309,478.30066951082307,187.92028215692355,443.15054189039347,432.63063780042893C408.00041426996387,677.3409934439343,222.6811194962654,986.0722903565953,202.15602918119984,1273.9671840565238C181.63093886613427,1561.8620777564524,300.35933819686664,2012.3278640094206,320,2160L 1920 2160 L 1920 -1080 Z" fill="url(&quot;#SvgjsLinearGradient1049&quot;)"></path><path d="M640,-1080C648.1069883155695,-954.9065142090224,688.3451675711452,-546.805981462352,688.6419298934175,-329.4390852541344C688.9386922156897,-112.07218904591682,666.1378982748234,30.235228711621687,641.7805739336331,224.20137724930558C617.4232495924429,418.1675257869895,550.2141367585149,631.4131157365655,542.4979838462756,834.3578059719689C534.7818309340363,1037.3024962073723,579.2333204345764,1220.9291529903874,595.4836564601972,1441.8695186617258C611.7339924858179,1662.8098843330642,632.5806094100328,2040.3115864436209,640,2160L 1920 2160 L 1920 -1080 Z" fill="url(&quot;#SvgjsLinearGradient1050&quot;)"></path><path d="M960,-1080C969.2793597059031,-997.1242354597978,1023.4872094403081,-725.7088182955066,1015.6761582354187,-582.7454127587868C1007.8651070305293,-439.7820072220669,910.7737879507195,-351.50026114848936,913.1336927706635,-222.2195667796809C915.4935975906076,-92.93887241087239,1009.5643745263416,38.142627800849255,1029.8355871550834,192.93875345406423C1050.1067997838254,347.7348791072792,1045.3151597634974,520.3088959414873,1034.7609685431148,706.5571871396089C1024.2067773227323,892.8054783377305,968.6773922903104,1133.8488004463761,966.5104398327887,1310.4285006427936C964.343487375267,1487.008200839211,1022.8443271034497,1624.4401384252453,1021.7592537979849,1766.035388318113C1020.6741804925201,1907.6306382109808,970.2932089663308,2094.3392313863524,960,2160L 1920 2160 L 1920 -1080 Z" fill="url(&quot;#SvgjsLinearGradient1051&quot;)"></path><path d="M1280,-1080C1260.1647969797868,-938.8890979096061,1152.2183891041288,-492.94999805256396,1160.9887818787206,-233.33458745763687C1169.7591746533124,26.280823137290213,1326.1927996222075,234.16245942825594,1332.6223566475503,477.6924635695625C1339.051913672893,721.2224677108691,1208.3365168053697,947.4608479851296,1199.566124030778,1227.8454373902025C1190.7957312561862,1508.2300267952755,1266.5943540051296,2004.6409062317005,1280,2160L 1920 2160 L 1920 -1080 Z" fill="url(&quot;#SvgjsLinearGradient1052&quot;)"></path><path d="M1600,-1080C1616.0516936865515,-975.9299991234725,1714.553223152872,-688.6740766455243,1696.3101621193093,-455.579994740835C1678.0671010857466,-222.48591283614567,1522.7108874611201,79.57983781158799,1490.541633798624,318.5644914281358C1458.3723801361277,557.5491450446837,1505.4472422032038,776.3064098600807,1503.294640144332,978.3279269584518C1501.1420380854604,1180.349444056823,1461.5084614694492,1333.7482485114374,1477.626021445394,1530.693594018362C1493.7435814213386,1727.6389395252868,1579.6043369075655,2055.11559900306,1600,2160L 1920 2160 L 1920 -1080 Z" fill="url(&quot;#SvgjsLinearGradient1053&quot;)"></path></g><defs><linearGradient x1="0.1" y1="0" x2="0" y2="1" id="SvgjsLinearGradient1048"><stop stop-color="#0b5ed7" offset="0"></stop><stop stop-color="#0b80d7" offset="0"></stop></linearGradient><linearGradient x1="0.1" y1="0" x2="0" y2="1" id="SvgjsLinearGradient1049"><stop stop-color="#277bf4" offset="0"></stop><stop stop-color="#279df4" offset="0.16666666666666666"></stop></linearGradient><linearGradient x1="0.1" y1="0" x2="0" y2="1" id="SvgjsLinearGradient1050"><stop stop-color="#5e9cf7" offset="0"></stop><stop stop-color="#5eb5f7" offset="0.3333333333333333"></stop></linearGradient><linearGradient x1="0.1" y1="0" x2="0" y2="1" id="SvgjsLinearGradient1051"><stop stop-color="#94befa" offset="0"></stop><stop stop-color="#94cffa" offset="0.5"></stop></linearGradient><linearGradient x1="0.1" y1="0" x2="0" y2="1" id="SvgjsLinearGradient1052"><stop stop-color="#cbdffc" offset="0"></stop><stop stop-color="#cbe7fc" offset="0.6666666666666666"></stop></linearGradient><linearGradient x1="0.1" y1="0" x2="0" y2="1" id="SvgjsLinearGradient1053"><stop stop-color="#ffffff" offset="0"></stop><stop stop-color="#ffffff" offset="0.8333333333333334"></stop></linearGradient></defs></svg>