<svg xmlns="http://www.w3.org/2000/svg" version="1.1" xmlns:xlink="http://www.w3.org/1999/xlink" xmlns:svgjs="http://svgjs.dev/svgjs" viewBox="0 0 1920 1080"><rect width="1920" height="1080" fill="#0000ff"></rect><g transform="matrix(-2.112515728529184e-16,-1.15,1.15,-2.112515728529184e-16,295.3750000000002,1593.8312500000002)"><path d="M0,-1080C-13.663011992013262,-975.3935024719144,-70.83662165019068,-638.3444755596211,-81.97807195207957,-452.3610148314866C-93.11952225396847,-266.37755410335217,-85.9087889639925,-139.0528179007704,-66.84870181133337,35.90076436880673C-47.788614658674234,210.85434663838387,23.282060146752826,417.0532694734626,32.38245096387524,597.3604787859763C41.48284178099766,777.66768809849,-9.799963015059646,936.734296258371,-12.24635690859887,1117.7440202438888C-14.692750802138093,1298.7537442294065,15.663028117873424,1509.7094927397309,17.704087602639902,1683.4188226990827C19.74514708740638,1857.1281526584346,2.9506812671066505,2080.5698037831803,0,2160L 1920 2160 L 1920 -1080 Z" fill="url(&quot;#SvgjsLinearGradient1938&quot;)"></path><path d="M160,-1080C151.87746298253987,-975.7164724649863,99.8191748058365,-643.4218201015293,111.26477789523923,-454.29883478991803C122.71038098464197,-265.17584947830676,239.61994253542986,-113.39465563627971,228.67361853641643,54.7379118696679C217.727294537403,222.8704793756155,73.27450127013716,396.5263632410457,45.58683390115871,554.4965702457675C17.899166532180256,712.4667772504894,46.5124592475795,825.3616860131779,62.547614322545684,1002.5591538979991C78.58276939751187,1179.7566217828203,125.5557000713801,1424.774569871028,141.79776435095582,1617.6813775546948C158.03982863053153,1810.5881852383616,156.96629405849262,2069.6135629257824,160,2160L 1920 2160 L 1920 -1080 Z" fill="url(&quot;#SvgjsLinearGradient1939&quot;)"></path><path d="M320,-1080C334.77149041790074,-940.4052045396497,394.9321654362419,-520.5821441004807,408.6289425074045,-242.43122723789858C422.32571957856703,35.71968962468358,403.9876637771569,316.63731380775226,402.18066242697546,588.9055011754932C400.373661076794,861.1736885432342,411.48371147747827,1129.328813831129,397.7869344063157,1391.177896968547C384.09015733515315,1653.0269801059649,332.9644890677193,2031.8629828280912,320,2160L 1920 2160 L 1920 -1080 Z" fill="url(&quot;#SvgjsLinearGradient1940&quot;)"></path><path d="M480,-1080C478.33270218423934,-1028.4076853980168,459.2415095994587,-898.5331953923237,469.99621310543597,-770.4461123881017C480.75091661141323,-642.3590293838797,549.7403600982756,-461.1388634469619,544.5282210358637,-311.4775019746677C539.3160819734518,-161.81614050237346,438.11970407179507,5.394624280593419,438.7233787309648,127.52205644566365C439.3270533901345,249.6494886107339,547.3416890435449,278.5713964915591,548.1502689908818,421.28709101575373C548.9588489382188,564.0027855399484,465.7298989873416,827.0198206447208,443.5748584149863,983.8162235908316C421.419817842631,1140.6126265369423,415.4064065463774,1235.62488406807,415.2200255567502,1362.0655086924187C415.033644567123,1488.5061333167673,431.65991007001486,1609.470889452327,442.4565724772232,1742.459971336924C453.2532348844315,1875.449053221521,473.7427620795372,2090.4099952228207,480,2160L 1920 2160 L 1920 -1080 Z" fill="url(&quot;#SvgjsLinearGradient1941&quot;)"></path><path d="M640,-1080C639.746812712503,-1021.2688038268253,621.3524623060962,-869.3324590502878,638.4808762750183,-727.6128229609521C655.6092902439404,-585.8931868716165,727.6667360628716,-390.82546933493643,742.7704838135329,-229.68218346398646C757.8742315641942,-68.53889759303647,764.0358054258522,94.28766282532465,729.1033627789864,239.2468922647478C694.1709201321205,384.206121704171,547.0863669991946,535.8596696953509,533.1758279323377,640.0731931725525C519.2652888654808,744.286716649754,630.375926058623,750.1533349033247,645.6401283778448,864.5280331279569C660.9043306970666,978.9027313525891,611.6140837157689,1178.5417215552843,624.7610418476681,1326.3213825203459C637.9079999795674,1474.1010434854074,721.9820508105187,1612.2595626717173,724.5218771692406,1751.2059989183263C727.0617035279625,1890.1524351649352,654.0869795282067,2091.867666486388,640,2160L 1920 2160 L 1920 -1080 Z" fill="url(&quot;#SvgjsLinearGradient1942&quot;)"></path><path d="M800,-1080C806.4752537038572,-976.1572647631197,824.0046442005872,-637.7335010566067,838.8515222231435,-456.94358857871805C853.6984002456999,-276.15367610082944,888.5011727862517,-140.81123069739215,889.0812681353378,4.7394748673318645C889.661363484424,150.29018043205588,867.6945226289524,253.11344995108502,842.3320943176606,416.360644809626C816.9696660063687,579.607839668167,757.3127405257196,780.3868849600151,736.9066982675865,984.2226440185779C716.5006560094535,1188.0584030771406,709.3802904801269,1443.4123064974326,719.8958407688624,1639.375199161003C730.4113910575979,1835.3380918245732,786.6493067948104,2073.2291998601672,800,2160L 1920 2160 L 1920 -1080 Z" fill="url(&quot;#SvgjsLinearGradient1943&quot;)"></path><path d="M960,-1080C970.0127538401418,-991.5186714551156,1018.2676811750731,-707.3136904140733,1020.0765230408508,-549.112028730694C1021.8853649066285,-390.9103670473146,988.1510865607182,-266.2363594246408,970.853051194666,-130.790029899724C953.5550158286138,4.6562996251928155,935.0268583325749,120.64456205619501,916.2883108445378,263.565948418807C897.5497633565008,406.487334781419,839.1537438884972,545.1333602907866,858.4217662664435,726.738288275948C877.6897886443898,908.3432162611093,1015.7333187870254,1206.297908956028,1031.8964451122158,1353.1955163297753C1048.0595714374062,1500.0931237035225,967.3832650696216,1473.6565185733937,955.4005242175857,1608.123932518431C943.4177833655498,1742.5913464634684,959.233420702931,2068.0206554197384,960,2160L 1920 2160 L 1920 -1080 Z" fill="url(&quot;#SvgjsLinearGradient1944&quot;)"></path><path d="M1120,-1080C1138.0388764182678,-944.3223337232911,1241.0738840237861,-545.3894736095533,1228.2332585096071,-265.9340023397467C1215.3926329954281,13.521468930059825,1046.985836283317,313.2264092718892,1042.9562469149255,596.7328276188392C1038.926657546534,880.2392459657892,1191.2150967850794,1174.5599790117599,1204.0557222992584,1435.1045077419533C1216.8963478134374,1695.6490364721467,1134.0092870498763,2039.184084623659,1120,2160L 1920 2160 L 1920 -1080 Z" fill="url(&quot;#SvgjsLinearGradient1945&quot;)"></path><path d="M1280,-1080C1281.5256916047952,-994.7764222363926,1282.5877165758113,-752.6749952328262,1289.1541496287703,-568.6585334183557C1295.7205826817292,-384.64207160388514,1311.0447334775913,-167.0603400050892,1319.3985983177536,24.098770886823303C1327.7524631579158,215.2578817787358,1350.1608680088898,406.0513911864115,1339.277338669744,578.2961319331191C1328.3938093305983,750.5408726798267,1276.4546011682187,890.5899227407016,1254.0974222828795,1057.567215367069C1231.7402433975403,1224.5445079934361,1200.8171690715224,1396.421090252501,1205.1342653577092,1580.1598876913229C1209.451361643896,1763.8986851301447,1267.5223775596182,2063.359981281887,1280,2160L 1920 2160 L 1920 -1080 Z" fill="url(&quot;#SvgjsLinearGradient1946&quot;)"></path><path d="M1440,-1080C1443.0814707741822,-988.4793642545283,1477.032745662661,-664.9511907449728,1458.4888246450932,-530.8761855271694C1439.9449036275255,-396.8011803093659,1343.125644940094,-429.09271477436687,1328.7364738945942,-275.5499686931795C1314.3473028490944,-122.00722261199209,1368.1066527516145,232.96783268399233,1372.1537983720941,390.3802909599551C1376.2009439925737,547.7927492359179,1331.6752954241608,534.8853445351846,1353.019347617471,668.9247809625973C1374.3633998107814,802.96421739001,1473.7300758294562,1011.9817821658188,1500.2181115319563,1194.6169095244318C1526.7061472344565,1377.2520368830449,1521.9839137544645,1603.8383633683472,1511.9475618324718,1764.7355451142753C1501.911209910479,1925.6327268602033,1451.991260305412,2094.1225908523793,1440,2160L 1920 2160 L 1920 -1080 Z" fill="url(&quot;#SvgjsLinearGradient1947&quot;)"></path><path d="M1600,-1080C1609.8443830934675,-990.3209442645745,1655.5176959594032,-703.5655588859753,1659.0662985608058,-541.9256655874468C1662.6149011622083,-380.28577228891834,1618.2616200120965,-255.42923344987847,1621.2916156084145,-110.16064020882936C1624.3216112047326,35.10795303221974,1700.1087525035714,171.98289025329754,1677.2462721387144,329.68589385884775C1654.3837917738574,487.3888974643979,1491.2050241867398,683.9043693165362,1484.116733419272,836.0573814244719C1477.028442651804,988.2103935324077,1632.575626812434,1116.781403805263,1634.7165275339066,1242.603966506462C1636.8574282553793,1368.4265292076611,1502.7482256704263,1438.0934187160774,1496.9621377481085,1590.992757631667C1491.1760498257906,1743.8920965472566,1582.827022958018,2065.1654596052776,1600,2160L 1920 2160 L 1920 -1080 Z" fill="url(&quot;#SvgjsLinearGradient1948&quot;)"></path><path d="M1760,-1080C1760.995374378094,-1025.396803815665,1766.9700826712547,-907.0185699256618,1765.972246268565,-752.3808228939903C1764.9744098658753,-597.7430758623187,1771.5016979741447,-289.66119719115403,1754.0129815838613,-152.17351780997052C1736.524265193578,-14.685838428787008,1676.1966179155697,-54.03790293287685,1661.0399479268654,72.54525339311076C1645.883277938161,199.12840971909836,1649.1734011350034,464.21093994028,1663.0729616516344,607.3254201459551C1676.9725221682654,750.4399003516303,1736.1233107122298,817.1972489664697,1744.4373110266515,931.2321346271616C1752.7513113410732,1045.2670202878535,1705.6235441635135,1147.3619725208264,1712.956963538165,1291.5347341101065C1720.2903829128163,1435.7074956993865,1780.5973211975868,1651.524493181193,1788.4378272745594,1796.268704162842C1796.278333351532,1941.0129151444908,1764.7396378790932,2099.378117360474,1760,2160L 1920 2160 L 1920 -1080 Z" fill="url(&quot;#SvgjsLinearGradient1949&quot;)"></path></g><defs><linearGradient x1="0.1" y1="0" x2="0" y2="1" id="SvgjsLinearGradient1938"><stop stop-color="#0000ff" offset="0"></stop><stop stop-color="#002bff" offset="0"></stop></linearGradient><linearGradient x1="0.1" y1="0" x2="0" y2="1" id="SvgjsLinearGradient1939"><stop stop-color="#2626ff" offset="0"></stop><stop stop-color="#264aff" offset="0.08333333333333333"></stop></linearGradient><linearGradient x1="0.1" y1="0" x2="0" y2="1" id="SvgjsLinearGradient1940"><stop stop-color="#4b4bff" offset="0"></stop><stop stop-color="#4b69ff" offset="0.16666666666666666"></stop></linearGradient><linearGradient x1="0.1" y1="0" x2="0" y2="1" id="SvgjsLinearGradient1941"><stop stop-color="#7171ff" offset="0"></stop><stop stop-color="#7189ff" offset="0.25"></stop></linearGradient><linearGradient x1="0.1" y1="0" x2="0" y2="1" id="SvgjsLinearGradient1942"><stop stop-color="#9797ff" offset="0"></stop><stop stop-color="#97a8ff" offset="0.3333333333333333"></stop></linearGradient><linearGradient x1="0.1" y1="0" x2="0" y2="1" id="SvgjsLinearGradient1943"><stop stop-color="#bcbcff" offset="0"></stop><stop stop-color="#bcc7ff" offset="0.4166666666666667"></stop></linearGradient><linearGradient x1="0.1" y1="0" x2="0" y2="1" id="SvgjsLinearGradient1944"><stop stop-color="#e2e2ff" offset="0"></stop><stop stop-color="#e2e7ff" offset="0.5"></stop></linearGradient><linearGradient x1="0.1" y1="0" x2="0" y2="1" id="SvgjsLinearGradient1945"><stop stop-color="#ffffff" offset="0"></stop><stop stop-color="#ffffff" offset="0.5833333333333334"></stop></linearGradient><linearGradient x1="0.1" y1="0" x2="0" y2="1" id="SvgjsLinearGradient1946"><stop stop-color="#ffffff" offset="0"></stop><stop stop-color="#ffffff" offset="0.6666666666666666"></stop></linearGradient><linearGradient x1="0.1" y1="0" x2="0" y2="1" id="SvgjsLinearGradient1947"><stop stop-color="#ffffff" offset="0"></stop><stop stop-color="#ffffff" offset="0.75"></stop></linearGradient><linearGradient x1="0.1" y1="0" x2="0" y2="1" id="SvgjsLinearGradient1948"><stop stop-color="#ffffff" offset="0"></stop><stop stop-color="#ffffff" offset="0.8333333333333334"></stop></linearGradient><linearGradient x1="0.1" y1="0" x2="0" y2="1" id="SvgjsLinearGradient1949"><stop stop-color="#ffffff" offset="0"></stop><stop stop-color="#ffffff" offset="0.9166666666666666"></stop></linearGradient></defs></svg>