<svg xmlns="http://www.w3.org/2000/svg" version="1.1" xmlns:xlink="http://www.w3.org/1999/xlink" xmlns:svgjs="http://svgjs.dev/svgjs" viewBox="0 0 1920 1080"><rect width="1920" height="1080" fill="#0d6efd"></rect><g transform="matrix(-2.112515728529184e-16,-1.15,1.15,-2.112515728529184e-16,281.9023437500002,1578.3376953125)"><path d="M0,-1080C-1.853225842814626,-1004.8938476082155,-13.635604657194222,-790.8504892667945,-11.119355056887755,-629.3630856492932C-8.60310545658129,-467.87568203179194,3.7146416712749115,-324.9843843564054,15.097497601838796,-111.07557829499203C26.48035353240268,102.83322776642137,43.60223409945045,450.3465341147994,57.17778052649555,654.0897507191871C70.75332695354065,857.8329673235748,124.845926368105,943.698716790399,96.55077616410941,1111.383721331334C68.25562596011382,1279.0687258722692,-96.50132467012645,1485.4303981866865,-112.59312069747801,1660.1997779647975C-128.68491672482958,1834.9691577429085,-18.765520116246336,2076.699962994133,0,2160L 1920 2160 L 1920 -1080 Z" fill="url(&quot;#SvgjsLinearGradient3300&quot;)"></path><path d="M160,-1080C157.9941154079,-984.0263792780065,132.6687900344103,-663.3724666430081,147.9646924474,-504.158275668039C163.26059486038972,-344.94408469306984,268.46607085129597,-245.18215223282976,251.77541447793828,-124.71485415018509C235.08475810458057,-4.247556067540401,65.76136459611428,82.3074776563559,47.82075420725381,218.64551282782918C29.880143818393346,354.98354799930246,118.81807119678173,537.1710544675892,144.13175214477548,693.3133568786546C169.4454330927692,849.4556592897201,180.75678802112245,985.417101226645,199.70283989521627,1155.4993272942215C218.6488917693101,1325.5815533617981,264.42520337187443,1546.389934499818,257.8080633893384,1713.8067132841145C251.1909234068023,1881.223492068411,176.30134389822305,2085.634452214019,160,2160L 1920 2160 L 1920 -1080 Z" fill="url(&quot;#SvgjsLinearGradient3301&quot;)"></path><path d="M320,-1080C328.96072261155575,-974.2837237091519,363.0785415716686,-619.7935545841981,373.76433566933446,-445.70234225491123C384.4501297670003,-271.6111299256244,383.6034356090814,-208.97725390061095,384.1147645859952,-35.45272602427919C384.62609356290903,138.07180185205254,388.78958764691737,416.88503475748735,376.8323095308175,595.4448250030794C364.8750314147176,774.0046152486714,308.19991463614116,881.5271514181243,312.371095889396,1035.9060154492731C316.5422771426508,1190.284879480422,400.5879130319125,1334.3690117648516,401.8593970503465,1521.7180091899727C403.1308810687805,1709.0670066150938,333.6432328417244,2053.619668198329,320,2160L 1920 2160 L 1920 -1080 Z" fill="url(&quot;#SvgjsLinearGradient3302&quot;)"></path><path d="M480,-1080C466.9761271621912,-972.0772002035526,393.65482700038007,-639.2113701517617,401.85676297314717,-432.46320122131567C410.0586989459143,-225.71503229086963,529.4315754003527,-64.37580941573779,529.2116158366026,160.48901358267642C528.9916562728525,385.3538365810906,424.6133409903077,675.2463782530178,400.5370055906468,916.7257367691697C376.4606701909859,1158.2050952853215,371.5097710370786,1402.1527874744493,384.75360343863747,1609.3651646795877C397.9974358401963,1816.577541884726,464.1256005731062,2068.227527446598,480,2160L 1920 2160 L 1920 -1080 Z" fill="url(&quot;#SvgjsLinearGradient3303&quot;)"></path><path d="M640,-1080C642.2486049802673,-953.584027143826,670.9124532441944,-589.0133031981712,653.4916298816038,-321.504162862956C636.0708065190132,-53.99502252774073,519.3896985767515,250.24368788232,535.4750598244568,525.0548420112916C551.5604210721622,799.8659961402632,732.5829740052455,1054.8719022460891,750.0037973678361,1327.3627619108738C767.4246207304267,1599.8536215756585,658.3339662279727,2021.2271269851456,640,2160L 1920 2160 L 1920 -1080 Z" fill="url(&quot;#SvgjsLinearGradient3304&quot;)"></path><path d="M800,-1080C784.902284870252,-1003.9236500811511,711.0924669062599,-785.3144041998619,709.4137092215115,-623.5419004869068C707.734951536763,-461.7693967739517,794.1576674743737,-245.92879943475768,789.9274538915096,-109.36497772226957C785.6972403086454,27.198843990218535,679.7107244854739,41.315237938529464,684.0324277243266,195.84102978802184C688.3541309631793,350.36682163751425,805.5155639296006,658.7094864535898,815.857673324626,817.7897733746847C826.1997827196515,976.8700602957797,742.1903294308852,1012.9333855816229,746.0850840944794,1150.3227513145916C749.9798387580736,1287.7121170475602,830.2403819886046,1473.8464263249286,839.2262013061913,1642.1259677724968C848.2120206237781,1810.405509220065,806.5377002176986,2073.687661295416,800,2160L 1920 2160 L 1920 -1080 Z" fill="url(&quot;#SvgjsLinearGradient3305&quot;)"></path><path d="M960,-1080C972.5434119281205,-993.0148166630186,1054.8744898762084,-741.7847394856054,1035.2604715687226,-558.0888999781112C1015.6464532612368,-374.3930604706169,868.7489184790128,-170.36506176664395,842.3158901550855,22.17503704496579C815.8828618311583,214.71513585657553,863.0012841840589,416.01957031706286,876.662301625159,597.1516928915473C890.323319066259,778.2838154660318,903.1342277799581,955.9272720908187,924.2819948016858,1108.9677724918727C945.4297618234134,1262.0082728929265,997.5959028891391,1340.2226573798496,1003.5489037555249,1515.3946952978708C1009.5019046219106,1690.566733215892,967.2581506259208,2052.565782549645,960,2160L 1920 2160 L 1920 -1080 Z" fill="url(&quot;#SvgjsLinearGradient3306&quot;)"></path><path d="M1120,-1080C1119.2090776225878,-1009.4168790041933,1125.3935173848122,-820.7049215478199,1115.2544657355265,-656.5012740251601C1105.115414086241,-492.2976265025003,1063.6724570735348,-296.07765768214114,1059.1656901042854,-94.77811486404082C1054.658923135036,106.5214279540595,1066.9025732401783,371.19903472232136,1088.2138639200305,551.2959828834419C1109.5251545998826,731.3929310445624,1189.5927986343138,806.7283726886894,1187.0334341833989,985.8035741026824C1184.474069732484,1164.8787755166754,1084.0299162451074,1430.0477870511802,1072.857677214541,1625.7471913673999C1061.6854381839744,1821.4465956836195,1112.1429462024234,2070.9578652279,1120,2160L 1920 2160 L 1920 -1080 Z" fill="url(&quot;#SvgjsLinearGradient3307&quot;)"></path><path d="M1280,-1080C1266.446603169344,-977.0360719067933,1217.5662525639566,-663.5070683248521,1198.679619016064,-462.2164314407596C1179.7929854681713,-260.92579455666714,1155.7830926786933,-101.04531749495422,1166.6801987126444,127.74382130455507C1177.5773047465955,356.5329601040644,1228.24070440311,664.4917998756202,1264.0622552197706,910.5184013562963C1299.8838060364312,1156.5450028369723,1378.9532128159028,1395.6564970813276,1381.6095036126078,1603.9034301886115C1384.2657944093128,1812.1503632958954,1296.934917268768,2067.3172383647684,1280,2160L 1920 2160 L 1920 -1080 Z" fill="url(&quot;#SvgjsLinearGradient3308&quot;)"></path><path d="M1440,-1080C1435.4480924591892,-979.4593672530667,1393.596781777005,-700.2722148360067,1412.6885547551356,-476.75620351840035C1431.7803277332662,-253.24019220079404,1555.091139503298,23.46582527415771,1554.5506378687833,261.0960679056379C1554.0101362342684,498.726310537118,1420.5422944713246,755.534511927592,1409.445544948047,949.0252522704807C1398.3487954247694,1142.5159926133692,1482.8777315537927,1220.2113853413832,1487.9701407291182,1422.0405099629697C1493.0625499044436,1623.8696345845563,1447.995023454853,2037.006751660495,1440,2160L 1920 2160 L 1920 -1080 Z" fill="url(&quot;#SvgjsLinearGradient3309&quot;)"></path><path d="M1600,-1080C1603.8290452769297,-970.4163250400072,1619.8236303900078,-625.0411480290178,1622.974271661578,-422.4979502400436C1626.1249129331484,-219.95475245106948,1628.7114014291194,-61.27630245444408,1618.9038476294215,135.2591867338448C1609.0962938297237,331.7946759221337,1565.2494635914065,540.5837677324541,1564.1289488633913,756.7149848896896C1563.008434135376,972.8462020469251,1606.2022507385616,1198.1656538255397,1612.1807592613297,1432.046489677258C1618.159267784098,1665.9273255289763,1602.030126543555,2038.6744149462097,1600,2160L 1920 2160 L 1920 -1080 Z" fill="url(&quot;#SvgjsLinearGradient3310&quot;)"></path><path d="M1760,-1080C1753.1439222150855,-964.0049554876235,1738.0267718430282,-605.4954024458831,1718.8635332905124,-384.0297329257414C1699.7002947379965,-162.56406340559974,1639.7027204460842,50.718470826257345,1645.0205686849054,248.79401712085007C1650.3384169237265,446.8695634154428,1749.8994679290554,576.7119469179437,1750.7706227234394,804.4235448418148C1751.6417775178234,1032.135142765686,1648.7092679051157,1389.1341954710458,1650.247497451209,1615.0636046640766C1651.7857269973024,1840.9930138571074,1741.7079162418681,2069.1772674440126,1760,2160L 1920 2160 L 1920 -1080 Z" fill="url(&quot;#SvgjsLinearGradient3311&quot;)"></path></g><defs><linearGradient x1="0.1" y1="0" x2="0" y2="1" id="SvgjsLinearGradient3300"><stop stop-color="#0d6efd" offset="0"></stop><stop stop-color="#0d96fd" offset="0"></stop></linearGradient><linearGradient x1="0.1" y1="0" x2="0" y2="1" id="SvgjsLinearGradient3301"><stop stop-color="#277efd" offset="0"></stop><stop stop-color="#27a2fd" offset="0.08333333333333333"></stop></linearGradient><linearGradient x1="0.1" y1="0" x2="0" y2="1" id="SvgjsLinearGradient3302"><stop stop-color="#418dfd" offset="0"></stop><stop stop-color="#41acfd" offset="0.16666666666666666"></stop></linearGradient><linearGradient x1="0.1" y1="0" x2="0" y2="1" id="SvgjsLinearGradient3303"><stop stop-color="#5b9dfe" offset="0"></stop><stop stop-color="#5bb8fe" offset="0.25"></stop></linearGradient><linearGradient x1="0.1" y1="0" x2="0" y2="1" id="SvgjsLinearGradient3304"><stop stop-color="#75acfe" offset="0"></stop><stop stop-color="#75c3fe" offset="0.3333333333333333"></stop></linearGradient><linearGradient x1="0.1" y1="0" x2="0" y2="1" id="SvgjsLinearGradient3305"><stop stop-color="#8fbcfe" offset="0"></stop><stop stop-color="#8fcefe" offset="0.4166666666666667"></stop></linearGradient><linearGradient x1="0.1" y1="0" x2="0" y2="1" id="SvgjsLinearGradient3306"><stop stop-color="#a9ccfe" offset="0"></stop><stop stop-color="#a9dafe" offset="0.5"></stop></linearGradient><linearGradient x1="0.1" y1="0" x2="0" y2="1" id="SvgjsLinearGradient3307"><stop stop-color="#c3dbff" offset="0"></stop><stop stop-color="#c3e5ff" offset="0.5833333333333334"></stop></linearGradient><linearGradient x1="0.1" y1="0" x2="0" y2="1" id="SvgjsLinearGradient3308"><stop stop-color="#deebff" offset="0"></stop><stop stop-color="#def0ff" offset="0.6666666666666666"></stop></linearGradient><linearGradient x1="0.1" y1="0" x2="0" y2="1" id="SvgjsLinearGradient3309"><stop stop-color="#f8fbff" offset="0"></stop><stop stop-color="#f8fcff" offset="0.75"></stop></linearGradient><linearGradient x1="0.1" y1="0" x2="0" y2="1" id="SvgjsLinearGradient3310"><stop stop-color="#ffffff" offset="0"></stop><stop stop-color="#ffffff" offset="0.8333333333333334"></stop></linearGradient><linearGradient x1="0.1" y1="0" x2="0" y2="1" id="SvgjsLinearGradient3311"><stop stop-color="#ffffff" offset="0"></stop><stop stop-color="#ffffff" offset="0.9166666666666666"></stop></linearGradient></defs></svg>